HIERARCHY
ROOT Hips
{
  OFFSET 5.84602e-005 68.8428 3.50346
  CHANNELS 6 Xposition Yposition Zposition Zrotation Xrotation Yrotation
  JOINT Spine
  {
    OFFSET 0 8.597 -4.6522
    CHANNELS 3 Zrotation Xrotation Yrotation
    JOINT Spine1
    {
      OFFSET 0 7.8454 0.4098
      CHANNELS 3 Zrotation Xrotation Yrotation
      JOINT Spine2
      {
        OFFSET 0 9.7078 -2.1609
        CHANNELS 3 Zrotation Xrotation Yrotation
        JOINT Neck
        {
          OFFSET 0 21.8761 -0.4549
          CHANNELS 3 Zrotation Xrotation Yrotation
          JOINT Head
          {
            OFFSET 0 12.3537 3.3602
            CHANNELS 3 Zrotation Xrotation Yrotation
            End Site
            {
              OFFSET 0.0001 18.9506 0.5657
            }
          }
        }
        JOINT LeftShoulder
        {
          OFFSET 2.2086 21.1115 7.2329
          CHANNELS 3 Zrotation Xrotation Yrotation
          JOINT LeftArm
          {
            OFFSET 13.1193 3.0282 -4.8998
            CHANNELS 3 Zrotation Xrotation Yrotation
            JOINT LeftForeArm
            {
              OFFSET 27.4081 -0.0973053 -0.2375
              CHANNELS 3 Zrotation Xrotation Yrotation
              JOINT LeftHand
              {
                OFFSET 22.8641 0.0662994 -0.1369
                CHANNELS 3 Zrotation Xrotation Yrotation
                JOINT LeftHandIndex1
                {
                  OFFSET 8.8614 0.775009 2.4612
                  CHANNELS 3 Zrotation Xrotation Yrotation
                  JOINT LeftHandIndex2
                  {
                    OFFSET 3.3146 -0.808304 0.5841
                    CHANNELS 3 Zrotation Xrotation Yrotation
                    JOINT LeftHandIndex3
                    {
                      OFFSET 2.2628 -0.552002 0.3989
                      CHANNELS 3 Zrotation Xrotation Yrotation
                      End Site
                      {
                        OFFSET 1.6102 -0.4807 0.2612
                      }
                    }
                  }
                }
                JOINT LeftHandMiddle1
                {
                  OFFSET 8.9937 0.895004 0.2143
                  CHANNELS 3 Zrotation Xrotation Yrotation
                  JOINT LeftHandMiddle2
                  {
                    OFFSET 4.0984 0.0113983 -0.0242
                    CHANNELS 3 Zrotation Xrotation Yrotation
                    JOINT LeftHandMiddle3
                    {
                      OFFSET 2.2716 0.00689697 -0.0138001
                      CHANNELS 3 Zrotation Xrotation Yrotation
                      End Site
                      {
                        OFFSET 2.0404 -0.1441 0.0027
                      }
                    }
                  }
                }
                JOINT LeftHandRing1
                {
                  OFFSET 8.5234 0.597198 -2.0164
                  CHANNELS 3 Zrotation Xrotation Yrotation
                  JOINT LeftHandRing2
                  {
                    OFFSET 3.7188 -0.188293 -0.2328
                    CHANNELS 3 Zrotation Xrotation Yrotation
                    JOINT LeftHandRing3
                    {
                      OFFSET 2.1191 -0.106598 -0.1332
                      CHANNELS 3 Zrotation Xrotation Yrotation
                      End Site
                      {
                        OFFSET 1.8737 -0.2304 -0.0886
                      }
                    }
                  }
                }
                JOINT LeftHandPinky1
                {
                  OFFSET 7.9094 -0.601089 -3.4825
                  CHANNELS 3 Zrotation Xrotation Yrotation
                  JOINT LeftHandPinky2
                  {
                    OFFSET 2.2874 -0.477005 -0.6314
                    CHANNELS 3 Zrotation Xrotation Yrotation
                    JOINT LeftHandPinky3
                    {
                      OFFSET 1.6774 -0.349396 -0.4633
                      CHANNELS 3 Zrotation Xrotation Yrotation
                      End Site
                      {
                        OFFSET 1.4888 -0.4091 -0.3416
                      }
                    }
                  }
                }
                JOINT LeftHandThumb1
                {
                  OFFSET 1.833 -1.3875 1.3896
                  CHANNELS 3 Zrotation Xrotation Yrotation
                  JOINT LeftHandThumb2
                  {
                    OFFSET 3.4129 -1.121 2.5732
                    CHANNELS 3 Zrotation Xrotation Yrotation
                    JOINT LeftHandThumb3
                    {
                      OFFSET 2.2474 -0.804199 1.6192
                      CHANNELS 3 Zrotation Xrotation Yrotation
                      End Site
                      {
                        OFFSET 1.6527 -0.5689 1.1317
                      }
                    }
                  }
                }
              }
            }
          }
        }
        JOINT RightShoulder
        {
          OFFSET -2.2086 21.1115 7.2329
          CHANNELS 3 Zrotation Xrotation Yrotation
          JOINT RightArm
          {
            OFFSET -13.1216 3.0287 -4.9007
            CHANNELS 3 Zrotation Xrotation Yrotation
            JOINT RightForeArm
            {
              OFFSET -27.4081 -0.0973053 -0.2375
              CHANNELS 3 Zrotation Xrotation Yrotation
              JOINT RightHand
              {
                OFFSET -22.8641 0.0664063 -0.1369
                CHANNELS 3 Zrotation Xrotation Yrotation
                JOINT RightHandIndex1
                {
                  OFFSET -8.8614 0.774994 2.4612
                  CHANNELS 3 Zrotation Xrotation Yrotation
                  JOINT RightHandIndex2
                  {
                    OFFSET -3.3146 -0.808304 0.5841
                    CHANNELS 3 Zrotation Xrotation Yrotation
                    JOINT RightHandIndex3
                    {
                      OFFSET -2.2628 -0.552002 0.3989
                      CHANNELS 3 Zrotation Xrotation Yrotation
                      End Site
                      {
                        OFFSET -1.6102 -0.4807 0.2612
                      }
                    }
                  }
                }
                JOINT RightHandMiddle1
                {
                  OFFSET -8.9937 0.894989 0.2143
                  CHANNELS 3 Zrotation Xrotation Yrotation
                  JOINT RightHandMiddle2
                  {
                    OFFSET -4.0984 0.0113983 -0.0242
                    CHANNELS 3 Zrotation Xrotation Yrotation
                    JOINT RightHandMiddle3
                    {
                      OFFSET -2.2716 0.00691223 -0.0138001
                      CHANNELS 3 Zrotation Xrotation Yrotation
                      End Site
                      {
                        OFFSET -2.0404 -0.1441 0.0027
                      }
                    }
                  }
                }
                JOINT RightHandRing1
                {
                  OFFSET -8.5234 0.597198 -2.0164
                  CHANNELS 3 Zrotation Xrotation Yrotation
                  JOINT RightHandRing2
                  {
                    OFFSET -3.7188 -0.188309 -0.2328
                    CHANNELS 3 Zrotation Xrotation Yrotation
                    JOINT RightHandRing3
                    {
                      OFFSET -2.1191 -0.106598 -0.1332
                      CHANNELS 3 Zrotation Xrotation Yrotation
                      End Site
                      {
                        OFFSET -1.8737 -0.2304 -0.0886
                      }
                    }
                  }
                }
                JOINT RightHandPinky1
                {
                  OFFSET -7.9094 -0.601105 -3.4825
                  CHANNELS 3 Zrotation Xrotation Yrotation
                  JOINT RightHandPinky2
                  {
                    OFFSET -2.2874 -0.477005 -0.6314
                    CHANNELS 3 Zrotation Xrotation Yrotation
                    JOINT RightHandPinky3
                    {
                      OFFSET -1.6774 -0.349396 -0.4633
                      CHANNELS 3 Zrotation Xrotation Yrotation
                      End Site
                      {
                        OFFSET -1.4888 -0.4091 -0.3416
                      }
                    }
                  }
                }
                JOINT RightHandThumb1
                {
                  OFFSET -1.833 -1.38751 1.3896
                  CHANNELS 3 Zrotation Xrotation Yrotation
                  JOINT RightHandThumb2
                  {
                    OFFSET -3.41299 -1.12099 2.5732
                    CHANNELS 3 Zrotation Xrotation Yrotation
                    JOINT RightHandThumb3
                    {
                      OFFSET -2.24741 -0.804108 1.6192
                      CHANNELS 3 Zrotation Xrotation Yrotation
                      End Site
                      {
                        OFFSET -1.6527 -0.5689 1.1317
                      }
                    }
                  }
                }
              }
            }
          }
        }
      }
    }
  }
  JOINT RightUpLeg
  {
    OFFSET -9.1966 3.8861 -0.7581
    CHANNELS 3 Zrotation Xrotation Yrotation
    JOINT RightLeg
    {
      OFFSET -0.7359 -41.0265 0
      CHANNELS 3 Zrotation Xrotation Yrotation
      JOINT RightFoot
      {
        OFFSET 0 -40.2855 0
        CHANNELS 3 Zrotation Xrotation Yrotation
        JOINT RightToeBase
        {
          OFFSET 0 -5.6122 11.7359
          CHANNELS 3 Zrotation Xrotation Yrotation
          End Site
          {
            OFFSET 0 0 7.8731
          }
        }
      }
    }
  }
  JOINT LeftUpLeg
  {
    OFFSET 9.1965 3.8864 -0.7581
    CHANNELS 3 Zrotation Xrotation Yrotation
    JOINT LeftLeg
    {
      OFFSET 0.7359 -41.0268 0
      CHANNELS 3 Zrotation Xrotation Yrotation
      JOINT LeftFoot
      {
        OFFSET 0 -40.2855 0
        CHANNELS 3 Zrotation Xrotation Yrotation
        JOINT LeftToeBase
        {
          OFFSET 0 -5.6122 11.7359
          CHANNELS 3 Zrotation Xrotation Yrotation
          End Site
          {
            OFFSET 0 0 7.8731
          }
        }
      }
    }
  }
}
MOTION
Frames:	5
Frame Time:	0.0333333
5.19267 24.9929 14.8072 0 0 -41.0003 1.25149 4.82492 0.642208 2.46161 9.66249 1.18443 2.46161 9.66249 1.18442 -6.0256e-005 20.9968 2.28052e-005 3.13381 16.975 -17.9183 -36.6519 2.86157 1.75684 -34.9246 -20.5817 -11.1128 -31.9837 24.7162 0.198625 19.9982 -1.34845e-006 2.67407e-006 7.95139e-016 -6.36111e-015 3.18055e-015 1.55581e-006 -4.24463e-007 7.3399e-007 7.95139e-016 -9.54166e-015 -1.59028e-015 7.95139e-016 -6.36111e-015 3.18055e-015 -0.0145653 -9.11988e-005 3.17611e-006 -3.97569e-015 6.36111e-015 1.59028e-015 7.95139e-016 -6.36111e-015 3.18055e-015 -0.0188169 -0.00117998 6.19975e-005 3.18055e-015 0 -0 7.95139e-016 -6.36111e-015 3.18055e-015 -0.0122994 -0.00325295 0.000680311 1.59028e-015 9.54166e-015 -3.18055e-015 7.95139e-016 -6.36111e-015 3.18055e-015 1.55581e-006 -4.24463e-007 7.3399e-007 7.95139e-016 -9.54166e-015 -1.59028e-015 -3.02155 0.297754 7.47664 26.6635 -1.2918 -15.9081 39.7041 -15.1936 53.4824 14.6203 -15.4521 5.35057 1.59028e-015 -9.54166e-015 4.77083e-015 7.68434e-007 8.2664e-007 1.25949e-006 -3.18055e-015 6.36111e-015 3.18055e-015 1.59028e-015 -9.54166e-015 4.77083e-015 0.0149983 -9.05477e-005 2.59322e-006 -3.18055e-015 9.54166e-015 -4.77083e-015 1.59028e-015 -9.54166e-015 4.77083e-015 0.0190145 -0.00119844 -5.90449e-005 1.59028e-015 6.36111e-015 -3.18055e-015 1.59028e-015 -9.54166e-015 4.77083e-015 0.0122545 -0.00324416 -0.000677734 1.76556e-030 1.27222e-014 -7.95139e-015 1.59028e-015 -9.54166e-015 4.77083e-015 7.68434e-007 8.2664e-007 1.25949e-006 -3.18055e-015 6.36111e-015 3.18055e-015 -16.8615 -20.292 -15.5637 -163.779 54.4177 166.753 -10.5559 50.843 -11.7882 7.95139e-016 1.59028e-015 -0 16.8573 -20.2926 15.5592 163.777 54.4174 -166.757 10.5543 50.8426 11.785 3.52115e-007 -5.2114e-007 -4.00008e-006 
5.19267 24.9929 14.8072 0 0 -41.0003 1.25743 4.80568 0.639846 2.47385 9.624 1.17953 2.47385 9.624 1.17953 5.52102e-006 20.9968 -2.27494e-005 3.13381 16.975 -17.9183 -36.6519 2.86157 1.75683 -34.9246 -20.5817 -11.1128 -31.7713 24.5761 0.198671 19.9982 5.59833e-006 1.78899e-006 2.38542e-015 -3.18055e-015 -7.95139e-016 -7.95139e-016 -1.27222e-014 -7.95139e-016 -1.59028e-015 -3.18055e-015 -7.95139e-016 2.38542e-015 -3.18055e-015 -7.95139e-016 -0.0145911 -8.98548e-005 -1.31514e-006 4.77083e-015 0 -3.18055e-015 2.38542e-015 -3.18055e-015 -7.95139e-016 -0.0187847 -0.00117876 6.3619e-005 5.56597e-015 -9.54166e-015 2.38542e-015 2.38542e-015 -3.18055e-015 -7.95139e-016 -0.0122693 -0.0032512 0.000678568 1.57691e-006 -4.34252e-007 7.36977e-007 2.38542e-015 -3.18055e-015 -7.95139e-016 -7.95139e-016 -1.27222e-014 -7.95139e-016 -1.59028e-015 -3.18055e-015 -7.95139e-016 -2.99121 0.303104 7.43516 26.9257 -1.07157 -15.6899 39.593 -14.974 53.7709 14.7081 -15.312 5.31472 4.50411e-006 -3.87993e-007 2.64926e-006 -1.07165e-006 2.71554e-006 1.32845e-006 3.73755e-006 -1.22229e-006 1.39237e-006 4.50411e-006 -3.87993e-007 2.64926e-006 0.0150032 -8.81622e-005 2.0404e-007 3.73716e-006 -1.22211e-006 1.39253e-006 4.50411e-006 -3.87993e-007 2.64926e-006 0.0190061 -0.00118687 -5.81103e-005 3.73707e-006 -1.22203e-006 1.39254e-006 4.50411e-006 -3.87993e-007 2.64926e-006 0.0122717 -0.0032423 -0.00067737 3.73728e-006 -1.22204e-006 1.39241e-006 4.50411e-006 -3.87993e-007 2.64926e-006 -1.07165e-006 2.71554e-006 1.32845e-006 3.73755e-006 -1.22229e-006 1.39237e-006 -16.8615 -20.292 -15.5637 -163.779 54.4177 166.753 -10.5559 50.843 -11.7882 7.95139e-016 1.59028e-015 -0 16.8573 -20.2926 15.5592 163.777 54.4174 -166.757 10.5543 50.8426 11.785 3.52115e-007 -5.2114e-007 -4.00008e-006 
5.19267 24.9929 14.8072 0 0 -41.0003 1.26335 4.78642 0.637429 2.48608 9.5855 1.17466 2.48608 9.58551 1.17463 -5.30839e-005 20.9968 2.46857e-006 3.13381 16.975 -17.9184 -36.6519 2.86157 1.75686 -34.9246 -20.5817 -11.1128 -31.5577 24.4378 0.19873 19.9982 9.59821e-006 -2.82288e-006 2.38542e-015 1.59028e-014 -7.95139e-016 1.95829e-006 -1.48464e-006 1.23592e-006 1.60034e-006 -4.43113e-007 7.3998e-007 2.38542e-015 1.59028e-014 -7.95139e-016 -0.0145881 -9.17824e-005 -3.60565e-007 1.59899e-006 -4.43215e-007 7.39922e-007 2.38542e-015 1.59028e-014 -7.95139e-016 -0.0187593 -0.00117848 5.67021e-005 -7.95139e-016 1.27222e-014 7.95139e-016 2.38542e-015 1.59028e-014 -7.95139e-016 -0.0122651 -0.00324791 0.000678119 4.77083e-015 -3.18055e-015 8.74653e-015 2.38542e-015 1.59028e-014 -7.95139e-016 1.95829e-006 -1.48464e-006 1.23592e-006 1.60034e-006 -4.43113e-007 7.3998e-007 -2.96087 0.30845 7.39369 27.1874 -0.850043 -15.4725 39.4808 -14.7548 54.0599 14.7959 -15.172 5.27869 -1.32744e-006 -5.93926e-007 1.74362e-006 3.29961e-006 -2.3075e-007 2.44869e-006 1.94574e-006 6.90769e-007 1.46849e-006 -1.32744e-006 -5.93926e-007 1.74362e-006 0.015017 -8.94125e-005 4.57716e-006 3.27299e-006 1.28466e-006 -2.75305e-007 -1.32744e-006 -5.93926e-007 1.74362e-006 0.0189701 -0.00118512 -5.75684e-005 3.27294e-006 1.28467e-006 -2.7538e-007 -1.32744e-006 -5.93926e-007 1.74362e-006 0.0123059 -0.00325167 -0.000678966 3.27301e-006 1.28473e-006 -2.75356e-007 -1.32744e-006 -5.93926e-007 1.74362e-006 3.29961e-006 -2.3075e-007 2.44869e-006 1.94574e-006 6.90769e-007 1.46849e-006 -16.8615 -20.292 -15.5637 -163.779 54.4177 166.753 -10.5559 50.843 -11.7882 7.95139e-016 1.59028e-015 -0 16.8573 -20.2926 15.5592 163.777 54.4174 -166.757 10.5543 50.8426 11.785 3.52115e-007 -5.2114e-007 -4.00008e-006 
5.19267 24.9929 14.8072 0 0 -41.0003 1.26927 4.76716 0.635075 2.4983 9.547 1.16977 2.49831 9.547 1.16976 -5.80367e-005 20.9977 -2.52325e-005 3.13379 16.975 -17.9183 -36.6519 2.86157 1.75685 -34.9246 -20.5817 -11.1128 -31.3431 24.3014 0.198808 19.9982 5.93088e-006 -1.5561e-006 6.36111e-015 0 -0 3.97569e-015 9.54166e-015 -3.18055e-015 0 0 -4.77083e-015 6.36111e-015 0 -0 -0.0146 -8.9742e-005 3.5043e-006 1.9286e-006 -1.46792e-006 1.23167e-006 6.36111e-015 0 -0 -0.0187825 -0.00118101 6.03999e-005 1.92919e-006 -1.46781e-006 1.23159e-006 6.36111e-015 0 -0 -0.0123296 -0.00326431 0.000677233 0 0 -1.59028e-015 6.36111e-015 0 -0 3.97569e-015 9.54166e-015 -3.18055e-015 0 0 -4.77083e-015 -2.93052 0.313757 7.35218 27.4485 -0.627206 -15.2557 39.3673 -14.5357 54.3495 14.8837 -15.0321 5.24247 3.18055e-015 0 -3.18055e-015 2.93136e-006 -2.07483e-006 1.73306e-007 3.18055e-015 -6.36111e-015 -6.36111e-015 3.18055e-015 0 -3.18055e-015 0.0150094 -8.4829e-005 -5.67816e-007 -7.95139e-015 -3.18055e-015 -1.59028e-015 3.18055e-015 0 -3.18055e-015 0.0189958 -0.00119119 -6.10474e-005 -3.18055e-015 9.54166e-015 -0 3.18055e-015 0 -3.18055e-015 0.0122861 -0.00325365 -0.000676119 1.76556e-031 3.18055e-015 -3.18055e-015 3.18055e-015 0 -3.18055e-015 2.93136e-006 -2.07483e-006 1.73306e-007 3.18055e-015 -6.36111e-015 -6.36111e-015 -16.8615 -20.292 -15.5637 -163.779 54.4177 166.753 -10.5559 50.843 -11.7882 7.95139e-016 1.59028e-015 -0 16.8573 -20.2926 15.5592 163.777 54.4174 -166.757 10.5543 50.8426 11.785 3.52115e-007 -5.2114e-007 -4.00008e-006 
5.19267 24.9929 14.8072 0 0 -41.0003 1.2752 4.74791 0.632712 2.51052 9.50849 1.16489 2.51053 9.50849 1.16488 -8.38431e-005 20.9966 3.07837e-005 3.1338 16.975 -17.9183 -36.6519 2.86158 1.75685 -34.9246 -20.5817 -11.1128 -31.1274 24.1668 0.198903 19.9982 3.1632e-006 -5.63496e-006 -1.59028e-015 -6.36111e-015 -2.38542e-015 -5.56597e-015 -6.36111e-015 -1.59028e-015 -7.95139e-015 -1.27222e-014 -1.59028e-015 -1.59028e-015 -6.36111e-015 -2.38542e-015 -0.014582 -8.7709e-005 -3.31034e-006 -7.15625e-015 9.54166e-015 -0 -1.59028e-015 -6.36111e-015 -2.38542e-015 -0.0187644 -0.00117784 5.46624e-005 1.64347e-006 -4.61435e-007 7.45704e-007 -1.59028e-015 -6.36111e-015 -2.38542e-015 -0.0122762 -0.00324961 0.00067503 1.59028e-015 0 -3.97569e-015 -1.59028e-015 -6.36111e-015 -2.38542e-015 -5.56597e-015 -6.36111e-015 -1.59028e-015 -7.95139e-015 -1.27222e-014 -1.59028e-015 -2.90017 0.319055 7.31069 27.7092 -0.403079 -15.0397 39.2527 -14.317 54.6397 14.9715 -14.8923 5.20605 6.36111e-015 -6.36111e-015 -6.36111e-015 2.69647e-006 7.33533e-008 5.46035e-006 3.80473e-007 4.28491e-007 6.24398e-007 6.36111e-015 -6.36111e-015 -6.36111e-015 0.015 -8.93041e-005 6.97188e-006 3.80487e-007 4.28572e-007 6.24341e-007 6.36111e-015 -6.36111e-015 -6.36111e-015 0.018983 -0.00119327 -5.733e-005 3.80496e-007 4.28593e-007 6.24323e-007 6.36111e-015 -6.36111e-015 -6.36111e-015 0.0122454 -0.00324544 -0.000670507 3.80499e-007 4.28557e-007 6.24341e-007 6.36111e-015 -6.36111e-015 -6.36111e-015 2.69647e-006 7.33533e-008 5.46035e-006 3.80473e-007 4.28491e-007 6.24398e-007 -16.8615 -20.292 -15.5637 -163.779 54.4177 166.753 -10.5559 50.843 -11.7882 7.95139e-016 1.59028e-015 -0 16.8573 -20.2926 15.5592 163.777 54.4174 -166.757 10.5543 50.8426 11.785 3.52115e-007 -5.2114e-007 -4.00008e-006 
